<?xml version="1.0" encoding="UTF-8" standalone="no"?><svg xmlns="http://www.w3.org/2000/svg" xmlns:xlink="http://www.w3.org/1999/xlink" fill="#ffffff" height="480.5" preserveAspectRatio="xMidYMid meet" version="1" viewBox="21.7 15.5 477.1 480.5" width="477.1" zoomAndPan="magnify"><g id="change1_1"><path d="M208,232c-4.4,0-8,3.6-8,8v56c0,4.4,3.6,8,8,8h40c4.4,0,8-3.6,8-8v-56c0-4.4-3.6-8-8-8H208z M240,288h-24v-40h24V288z"/><path d="M288,184c-4.4,0-8,3.6-8,8v104c0,4.4,3.6,8,8,8h40c4.4,0,8-3.6,8-8V192c0-4.4-3.6-8-8-8H288z M320,288h-24v-88h24V288z"/><path d="M368,152c-4.4,0-8,3.6-8,8v136c0,4.4,3.6,8,8,8h40c4.4,0,8-3.6,8-8V160c0-4.4-3.6-8-8-8H368z M400,288h-24V168h24V288z"/><path d="M488,104h-40c-4.4,0-8,3.6-8,8v184c0,4.4,3.6,8,8,8h40c4.4,0,8-3.6,8-8V112C496,107.6,492.4,104,488,104z M480,288h-24V120 h24V288z"/><path d="M421.4,18.1c-2.1-1.9-5.1-2.6-7.8-1.7L331,42.6c-2.7,0.9-4.8,3.1-5.4,5.9c-0.6,2.8,0.3,5.7,2.4,7.6l10,9.1 c-0.5,0.9-1.1,1.9-1.6,2.8c-4,6.5-8.5,12.8-13.4,18.6c-10.1,12-22.1,22.5-35.5,31.2c-13.7,8.8-28.7,15.6-44.8,20 c-16.3,4.6-33.3,6.7-50.5,6.2c-4.1-0.1-7.6,2.8-8.1,6.9c-0.6,4,2,7.8,5.9,8.9c15.9,4.2,32.3,6.3,48.9,6.3c2.7,0,5.5-0.1,8.3-0.2 c19.8-0.8,39.4-4.6,58.2-11.3c19.2-6.8,37.4-16.5,53.9-28.8c8.2-6.1,16-12.8,23.2-20l9.6,8.8c2.1,1.9,5.1,2.6,7.8,1.7 s4.8-3.1,5.4-5.9l18.6-84.6C424.4,22.9,423.5,20,421.4,18.1z M392.6,93.3l-5.1-4.7c-3.2-2.9-8.2-2.8-11.2,0.4l-1.2,1.3 c-1.2,1.2-2.3,2.5-3.5,3.7c-6.8,6.8-14.2,13.2-21.9,18.9c-15.2,11.3-32,20.3-49.7,26.5c-12.6,4.5-25.6,7.5-38.9,9.2 c12.4-4.5,24.1-10.4,35-17.4c14.8-9.5,27.9-21.1,39-34.3c5.5-6.5,10.4-13.4,14.8-20.6c0.7-1.1,1.3-2.2,2-3.4 c0.4-0.6,0.7-1.3,1.1-1.9c0.1-0.1,0.1-0.2,0.2-0.3l1.8-3.4c1.7-3.2,1.1-7.2-1.7-9.7l-4.4-4l56.1-17.8L392.6,93.3z"/><path d="M448.5,322.6l-69.4,56.1c0-0.7,0-1.4,0-2.1c-0.3-16.7-13.4-30.4-29.3-30.4h-77.1c-4.4,0-8.6-2.6-11.2-6.9 c-0.6-0.9-1.3-1.7-2.2-2.4c-32.7-23.7-74-28.2-110.3-12l-13.4,6h-31.6v-12.3c0-4.4-3.6-8-8-8H29.7c-4.4,0-8,3.6-8,8v148 c0,4.4,3.6,8,8,8h66.4c4.4,0,8-3.6,8-8V454h32l94.9,30.1c21.5,8,39.6,11.9,57.6,11.9c18.1,0,36.2-4,57.8-12 c0.8-0.3,1.6-0.7,2.3-1.3l139-113.4c0.4-0.4,0.8-0.8,1.2-1.2c9.9-12.3,9.4-31.1-1.2-42.8C477.2,313.6,460.3,312.4,448.5,322.6z M61.7,446.7c-4.4,0-8-3.6-8-8s3.6-8,8-8s8,3.6,8,8S66.1,446.7,61.7,446.7z M88.1,339v107v12.7H75c6.4-4.3,10.7-11.6,10.7-20 c0-13.2-10.8-24-24-24s-24,10.8-24,24c0,8.3,4.3,15.7,10.7,20H37.7v-20v-112h50.4V339z M476.8,357.5l-137.2,112 c-38.8,14.2-64.1,14-103.2-0.5c-0.1,0-0.2-0.1-0.4-0.1l-96.3-30.6c-0.8-0.2-1.6-0.4-2.4-0.4h-33.2v-91h33.2c1.1,0,2.2-0.2,3.2-0.7 l15-6.7c30.6-13.6,65.3-10,93.2,9.5c5.6,8.3,14.4,13.1,24,13.1h77.1c7.2,0,13.2,6.6,13.3,14.6c0.1,4.5-1.5,8.7-4.4,11.6 c-1.4,1.4-3.1,2.5-4.8,3.1c-2.3,0.4-4.6,0.6-6.9,0.6h-85.8c-4.4,0-8,3.6-8,8s3.6,8,8,8h89.4c2.4,0,4.8-0.3,7.1-0.9 c10-1.8,19.4-6.2,27.7-12.8l73.4-59.4c0.1-0.1,0.1-0.1,0.2-0.2c5.2-4.5,12.3-3.9,17,1.2C481,341.8,481.4,351.2,476.8,357.5z"/></g></svg>