<?xml version="1.0" encoding="UTF-8" standalone="no"?><svg xmlns="http://www.w3.org/2000/svg" xmlns:xlink="http://www.w3.org/1999/xlink" fill="#cfe0e3" height="470" preserveAspectRatio="xMidYMid meet" version="1" viewBox="1.0 21.0 510.0 470.0" width="510" zoomAndPan="magnify"><g><g id="change1_1"><path d="M464.5,271H461V101c0-5.522-4.478-10-10-10h-10V31c0-5.522-4.478-10-10-10s-10,4.478-10,10v60h-10 c-5.522,0-10,4.478-10,10v170h-20.284c-2.496-22.468-21.593-40-44.716-40h-70v-21.72c11.639-4.128,20-15.243,20-28.28 c0-16.542-13.458-30-30-30s-30,13.458-30,30c0,13.036,8.361,24.152,20,28.28V231h-70c-23.186,0-42.234,17.485-44.718,40H111V101 c0-5.522-4.478-10-10-10H91V31c0-5.522-4.478-10-10-10s-10,4.478-10,10v60H61c-5.522,0-10,4.478-10,10v170h-3.5 C21.859,271,1,291.859,1,317.5v77C1,420.141,21.859,441,47.5,441H51v40c0,5.522,4.478,10,10,10h70 c4.089,0,7.767-2.489,9.285-6.286L157.771,441h196.458l17.486,43.714c1.519,3.797,5.196,6.286,9.285,6.286h70 c5.522,0,10-4.478,10-10v-40h3.5c25.641,0,46.5-20.859,46.5-46.5v-77C511,291.859,490.141,271,464.5,271z M256,171 c5.514,0,10,4.486,10,10s-4.486,10-10,10s-10-4.486-10-10S250.486,171,256,171z M421,111h20v160h-20V111z M71,111h20v160H71V111z M491,394.5c0,14.612-11.888,26.5-26.5,26.5c-7.14,0-409.75,0-417,0C32.888,421,21,409.112,21,394.5v-77 c0-14.612,11.888-26.5,26.5-26.5c18.138,0,69.717,0,86.069,0c6.265,17.576,23.193,30,42.431,30h160c19.287,0,36.1-12.19,42.425-30 c16.357,0,67.992,0,86.075,0c14.612,0,26.5,11.888,26.5,26.5V394.5z"/><path d="M151,341H81c-16.542,0-30,13.458-30,30s13.458,30,30,30h70c16.542,0,30-13.458,30-30S167.542,341,151,341z M151,381H81 c-5.514,0-10-4.486-10-10s4.486-10,10-10h70c5.514,0,10,4.486,10,10S156.514,381,151,381z"/><path d="M220.645,105.645c-3.905,3.905-3.905,10.237,0,14.143c3.906,3.904,10.236,3.904,14.143,0 c11.697-11.697,30.729-11.697,42.426,0c3.906,3.904,10.235,3.905,14.143,0c3.905-3.905,3.905-10.237,0-14.143 C271.859,86.15,240.141,86.15,220.645,105.645z"/><path d="M206.503,91.503c27.293-27.293,71.701-27.293,98.994,0c3.906,3.904,10.235,3.905,14.143,0 c3.905-3.905,3.905-10.237,0-14.143c-35.092-35.09-92.188-35.09-127.279,0c-3.905,3.905-3.905,10.237,0,14.143 C196.267,95.407,202.597,95.407,206.503,91.503z"/><circle cx="370.752" cy="370.965" r="9.752"/><circle cx="410.745" cy="370.965" r="9.752"/><circle cx="451.269" cy="370.965" r="9.752"/></g></g></svg>