<?xml version="1.0" encoding="UTF-8" standalone="no"?><svg xmlns="http://www.w3.org/2000/svg" xmlns:xlink="http://www.w3.org/1999/xlink" fill="#cfe0e3" height="128.4" preserveAspectRatio="xMidYMid meet" version="1" viewBox="3.0 -0.4 122.2 128.4" width="122.2" zoomAndPan="magnify"><g id="change1_1"><path d="M62.6,27.4C63,27.8,63.5,28,64,28h12c0.5,0,1-0.2,1.4-0.6l3.3-3.3c1,0.5,2.1,0.8,3.3,0.8c3.9,0,7-3.1,7-7s-3.1-7-7-7 c-3.9,0-7,3.1-7,7c0,1.2,0.3,2.3,0.8,3.3L75.2,24H64.8L58,17.2V4h5.8c0.2,0,0.4,0.1,0.6,0c17.8-0.7,36.1,7.4,45,24h-6.7 c-0.9-2.9-3.5-5-6.7-5c-3.9,0-7,3.1-7,7c0,3.2,2.1,5.8,5,6.7V55H79c-1.1,0-2,0.9-2,2v11h-4V56c0-0.6-0.3-1.1-0.7-1.5L66,49.1V36h8.2 l2.7,2.7c-0.5,1-0.8,2.1-0.8,3.3c0,3.9,3.1,7,7,7s7-3.1,7-7s-3.1-7-7-7c-1.2,0-2.3,0.3-3.3,0.8l-3.3-3.3C76,32.2,75.5,32,75,32H64 c-1.1,0-2,0.9-2,2v16c0,0.6,0.3,1.1,0.7,1.5l6.3,5.4V68h-8c-0.5,0-1,0.2-1.4,0.6l-16,16C43.2,85,43,85.5,43,86v16.3 c-2.9,0.9-5,3.5-5,6.7c0,3.9,3.1,7,7,7c3.9,0,7-3.1,7-7c0-3.2-2.1-5.8-5-6.7V86.8L61.8,72H98c0.8,0,1.5-0.4,1.8-1.1l6-12 c0.1-0.3,0.2-0.6,0.2-0.9v-7h8.8v8.2l-2.6,5.7c-0.2,0.5-0.2,1-0.1,1.5l8.8,23.5c0,0.1,0,0.2,0,0.3c-0.1,0.1-0.1,0.1-0.2,0.1h-8.6 c-0.6,0-1.2,0.3-1.6,0.8c-0.4,0.5-0.5,1.2-0.3,1.8l2.4,7l-4.6,1.6c-0.6,0.2-1.1,0.7-1.3,1.3c-0.2,0.6-0.1,1.3,0.3,1.8l3,4.1l-2.6,2 c-0.5,0.4-0.8,1-0.8,1.6v5.1c0,2.3-1.2,4.5-3.2,5.6c-0.9,0.6-2,0.9-3.1,0.9C92,124,60,113.5,60,96v-4.2c0-1.1-0.9-2-2-2s-2,0.9-2,2 V96c0,21.3,35.9,32,44.4,32c1.8,0,3.6-0.5,5.1-1.4c3.2-1.9,5.1-5.3,5.1-9.1v-4.2l3.3-2.6c0.8-0.7,1-1.9,0.4-2.7l-2.5-3.5l4-1.4 c1-0.4,1.6-1.5,1.2-2.5l-2.1-6.3h5.8c1.4,0,2.7-0.7,3.5-1.8c0.8-1.2,1-2.7,0.5-4l-8.5-22.7l2.4-5.3c0.1-0.3,0.2-0.5,0.2-0.8l0-10.6 c0,0,0,0,0,0c0,0,0,0,0,0l0-0.4c-0.6-15.1-6.8-27.8-17.8-36.8C91,3.7,78.1-0.4,64.4,0c-0.1,0-0.3,0-0.4,0h-8c-1.1,0-2,0.9-2,2v16 c0,0.5,0.2,1,0.6,1.4L62.6,27.4z M84,15c1.7,0,3,1.3,3,3s-1.3,3-3,3s-3-1.3-3-3S82.3,15,84,15z M83,39c1.7,0,3,1.3,3,3s-1.3,3-3,3 s-3-1.3-3-3S81.3,39,83,39z M48,109c0,1.7-1.3,3-3,3s-3-1.3-3-3s1.3-3,3-3S48,107.3,48,109z M93,30c0-1.7,1.3-3,3-3c1.7,0,3,1.3,3,3 s-1.3,3-3,3C94.3,33,93,31.7,93,30z M114.7,47H104c-1.1,0-2,0.9-2,2v8.5L96.8,68H81v-9h15c1.1,0,2-0.9,2-2V36.7 c2.3-0.7,4-2.5,4.7-4.7h8.6C113.1,36.5,114.3,41.5,114.7,47z" fill="inherit"/></g><g id="change1_2"><path d="M9,13.7V31c0,0.6,0.3,1.2,0.7,1.6l11,8.8c0.1,0.1,0.2,0.1,0.3,0.2V63c0,0.5,0.2,0.9,0.5,1.3l5.5,6.4v16.6 c-2.9,0.9-5,3.5-5,6.7c0,3.9,3.1,7,7,7c3.9,0,7-3.1,7-7c0-3.2-2.1-5.8-5-6.7V70c0-0.5-0.2-0.9-0.5-1.3L25,62.3V18.4l10,5.7v4.1 c-2.9,0.9-5,3.5-5,6.7c0,3.9,3.1,7,7,7c3.9,0,7-3.1,7-7c0-3.2-2.1-5.8-5-6.7V23c0-0.7-0.4-1.4-1-1.7l-14-8c-0.6-0.4-1.4-0.4-2,0 c-0.6,0.4-1,1-1,1.7v21.5L13,30V13.7c2.9-0.9,5-3.5,5-6.7c0-3.9-3.1-7-7-7C7.1,0,4,3.1,4,7C4,10.2,6.1,12.8,9,13.7z M32,94 c0,1.7-1.3,3-3,3s-3-1.3-3-3s1.3-3,3-3S32,92.3,32,94z M40,35c0,1.7-1.3,3-3,3s-3-1.3-3-3s1.3-3,3-3S40,33.3,40,35z M11,4 c1.7,0,3,1.3,3,3s-1.3,3-3,3S8,8.7,8,7S9.3,4,11,4z" fill="inherit"/></g><g id="change1_3"><path d="M54,31.8v29.3l-15,15V61.7c2.9-0.9,5-3.5,5-6.7c0-3.9-3.1-7-7-7c-3.9,0-7,3.1-7,7c0,3.2,2.1,5.8,5,6.7V81 c0,0.8,0.5,1.5,1.2,1.8C36.5,83,36.7,83,37,83c0.5,0,1-0.2,1.4-0.6l19-19C57.8,63,58,62.5,58,62V31c0-0.5-0.2-1-0.6-1.4L50,22.2V7 c0-1.1-0.9-2-2-2s-2,0.9-2,2v16c0,0.5,0.2,1,0.6,1.4L54,31.8z M37,58c-1.7,0-3-1.3-3-3s1.3-3,3-3s3,1.3,3,3S38.7,58,37,58z" fill="inherit"/></g><g id="change1_4"><path d="M3,80c0,3.9,3.1,7,7,7c3.9,0,7-3.1,7-7c0-3.2-2.1-5.8-5-6.7V59.7c2.9-0.9,5-3.5,5-6.7c0-3.9-3.1-7-7-7c-3.9,0-7,3.1-7,7 c0,3.2,2.1,5.8,5,6.7v13.6C5.1,74.2,3,76.8,3,80z M7,53c0-1.7,1.3-3,3-3s3,1.3,3,3s-1.3,3-3,3S7,54.7,7,53z M10,77c1.7,0,3,1.3,3,3 s-1.3,3-3,3s-3-1.3-3-3S8.3,77,10,77z" fill="inherit"/></g></svg>