<?xml version="1.0" encoding="UTF-8" standalone="no"?><svg xmlns="http://www.w3.org/2000/svg" xmlns:xlink="http://www.w3.org/1999/xlink" fill="#ffffff" height="480" preserveAspectRatio="xMidYMid meet" version="1" viewBox="76.0 16.0 360.0 480.0" width="360" zoomAndPan="magnify"><g id="change1_1"><path d="M428,80h-88V56c0-4.4-3.6-8-8-8h-36.8c-3.7-18.2-19.9-32-39.2-32s-35.5,13.8-39.2,32H180c-4.4,0-8,3.6-8,8v24H84 c-4.4,0-8,3.6-8,8v400c0,4.4,3.6,8,8,8h344c4.4,0,8-3.6,8-8V88C436,83.6,432.4,80,428,80z M188,64h36c4.4,0,8-3.6,8-8 c0-13.2,10.8-24,24-24s24,10.8,24,24c0,4.4,3.6,8,8,8h36v56H188V64z M420,480H92V96h80v32c0,4.4,3.6,8,8,8h152c4.4,0,8-3.6,8-8V96 h80V480z"/><path d="M216 184H368V200H216z"/><path d="M191.5,165.2c-1.1-3-4.1-5.2-7.5-5.2h-56c-4.4,0-8,3.6-8,8v56c0,4.4,3.6,8,8,8h56c4.4,0,8-3.6,8-8v-36.7l21.7-21.7 l-11.3-11.3L191.5,165.2z M176,180.7l-16,16l-10.3-10.3l-11.3,11.3l16,16c1.6,1.6,3.6,2.3,5.7,2.3s4.1-0.8,5.7-2.3l10.3-10.3V216 h-16h-24v-40h40V180.7z"/><path d="M216 280H368V296H216z"/><path d="M191.5,261.2c-1.1-3-4.1-5.2-7.5-5.2h-56c-4.4,0-8,3.6-8,8v56c0,4.4,3.6,8,8,8h56c4.4,0,8-3.6,8-8v-36.7l21.7-21.7 l-11.3-11.3L191.5,261.2z M176,276.7l-16,16l-10.3-10.3l-11.3,11.3l16,16c1.6,1.6,3.6,2.3,5.7,2.3s4.1-0.8,5.7-2.3l10.3-10.3V312 h-16h-24v-40h40V276.7z"/><path d="M216 376H368V392H216z"/><path d="M191.5,357.2c-1.1-3-4.1-5.2-7.5-5.2h-56c-4.4,0-8,3.6-8,8v56c0,4.4,3.6,8,8,8h56c4.4,0,8-3.6,8-8v-36.7l21.7-21.7 l-11.3-11.3L191.5,357.2z M176,372.7l-16,16l-10.3-10.3l-11.3,11.3l16,16c1.6,1.6,3.6,2.3,5.7,2.3s4.1-0.8,5.7-2.3l10.3-10.3V408 h-16h-24v-40h40V372.7z"/></g></svg>