<?xml version="1.0" encoding="UTF-8" standalone="no"?><svg xmlns="http://www.w3.org/2000/svg" xmlns:xlink="http://www.w3.org/1999/xlink" fill="#cfe0e3" height="49.3" preserveAspectRatio="xMidYMid meet" version="1" viewBox="6.9 31.0 84.0 49.3" width="84" zoomAndPan="magnify"><g id="change1_1"><path d="M 15.117188 31 C 10.601187 31 6.9296875 34.673453 6.9296875 39.189453 L 6.9296875 53.810547 C 6.9296875 58.326547 10.602187 62 15.117188 62 L 47.929688 62 C 48.482687 62 48.929688 61.552 48.929688 61 C 48.929688 60.448 48.482687 60 47.929688 60 L 15.117188 60 C 11.705187 60 8.9296875 57.223547 8.9296875 53.810547 L 8.9296875 39.189453 C 8.9296875 35.776453 11.705187 33 15.117188 33 L 76.929688 33 C 77.482687 33 77.929688 32.552 77.929688 32 C 77.929688 31.448 77.482687 31 76.929688 31 L 15.117188 31 z M 66.8125 40.011719 C 66.717031 40.022937 66.622 40.048391 66.53125 40.087891 C 66.16625 40.246891 65.929687 40.605906 65.929688 41.003906 L 65.929688 72.556641 C 65.929688 72.956641 66.166203 73.318562 66.533203 73.476562 C 66.900203 73.634563 67.327187 73.55625 67.617188 73.28125 L 74.421875 66.8125 L 79.970703 79.648438 C 80.076703 79.894437 80.278297 80.086594 80.529297 80.183594 C 80.644297 80.227594 80.766672 80.251953 80.888672 80.251953 C 81.030672 80.251953 81.170734 80.220156 81.302734 80.160156 L 85.509766 78.248047 C 86.011766 78.020047 86.235812 77.430734 86.007812 76.927734 L 80.277344 64.253906 L 89.962891 63.419922 C 90.356891 63.385922 90.693266 63.122047 90.822266 62.748047 C 90.952266 62.374047 90.848547 61.959453 90.560547 61.689453 L 67.611328 40.273438 C 67.391578 40.069437 67.098906 39.978063 66.8125 40.011719 z M 51.013672 40.123047 L 46.644531 51.25 L 48.310547 51.25 L 52.693359 40.123047 L 51.013672 40.123047 z M 56.980469 40.123047 L 52.611328 51.25 L 54.277344 51.25 L 58.660156 40.123047 L 56.980469 40.123047 z M 17.929688 40.988281 L 17.929688 50.175781 L 19.53125 50.175781 L 19.53125 46.867188 C 19.53125 45.896188 20.187812 45.095703 21.132812 45.095703 C 21.986812 45.095703 22.601563 45.594391 22.601562 46.775391 L 22.601562 50.175781 L 24.203125 50.175781 L 24.203125 50.173828 L 24.203125 46.761719 C 24.203125 44.859719 23.389734 43.613281 21.552734 43.613281 C 20.818734 43.613281 20.10925 43.835984 19.53125 44.583984 L 19.53125 40.988281 L 17.929688 40.988281 z M 27.808594 41.882812 L 26.207031 42.052734 L 26.207031 43.720703 L 25 43.720703 L 25 45.097656 L 26.207031 45.097656 L 26.207031 47.892578 C 26.206031 49.505578 27.124297 50.306906 28.529297 50.253906 C 29.014297 50.240906 29.396469 50.161516 29.855469 49.978516 L 29.408203 48.613281 C 29.172203 48.731281 28.884766 48.810547 28.634766 48.810547 C 28.136766 48.810547 27.794922 48.508578 27.794922 47.892578 L 27.794922 45.097656 L 29.59375 45.097656 L 29.59375 43.720703 L 27.808594 43.720703 L 27.808594 41.882812 z M 33.042969 41.882812 L 31.441406 42.052734 L 31.441406 43.720703 L 30.234375 43.720703 L 30.234375 45.097656 L 31.441406 45.097656 L 31.441406 47.892578 C 31.441406 49.505578 32.359672 50.306906 33.763672 50.253906 C 34.248672 50.240906 34.630844 50.161516 35.089844 49.978516 L 34.642578 48.613281 C 34.406578 48.731281 34.119141 48.810547 33.869141 48.810547 C 33.371141 48.810547 33.029297 48.508578 33.029297 47.892578 L 33.029297 45.097656 L 34.826172 45.097656 L 34.826172 43.720703 L 33.042969 43.720703 L 33.042969 41.882812 z M 39.720703 43.560547 C 38.983703 43.561547 38.118141 43.875656 37.619141 44.597656 L 37.515625 43.705078 L 36.019531 43.705078 L 36.019531 52.876953 L 37.621094 52.876953 L 37.621094 49.412109 C 38.080094 50.120109 39.091437 50.330078 39.773438 50.330078 C 41.846438 50.330078 43.041016 48.834312 43.041016 46.945312 C 43.041016 45.042313 41.714703 43.560547 39.720703 43.560547 z M 68.273438 43.626953 L 87.550781 61.619141 L 78.699219 62.382812 C 78.376219 62.410812 78.087828 62.591094 77.923828 62.871094 C 77.759828 63.151094 77.741 63.493063 77.875 63.789062 L 83.773438 76.839844 L 81.402344 77.917969 L 75.6875 64.701172 C 75.5575 64.401172 75.291703 64.184141 74.970703 64.119141 C 74.904703 64.106141 74.835531 64.099609 74.769531 64.099609 C 74.515531 64.099609 74.267078 64.195047 74.080078 64.373047 L 67.929688 70.224609 L 67.929688 45.3125 L 70.330078 50.699219 C 70.413078 50.885219 70.596109 50.996094 70.787109 50.996094 C 70.855109 50.996094 70.925234 50.982125 70.990234 50.953125 C 71.243234 50.841125 71.356141 50.544969 71.244141 50.292969 L 68.273438 43.626953 z M 45.214844 44.617188 C 44.749094 44.617188 44.283203 44.926469 44.283203 45.542969 C 44.283203 46.762969 46.146484 46.762969 46.146484 45.542969 C 46.146484 44.926469 45.680594 44.617188 45.214844 44.617188 z M 39.601562 45.109375 C 40.755563 45.109375 41.4375 45.935313 41.4375 46.945312 C 41.4375 47.955312 40.690563 48.783203 39.601562 48.783203 C 38.512562 48.783203 37.763672 47.955313 37.763672 46.945312 C 37.763672 45.934312 38.446562 45.109375 39.601562 45.109375 z M 45.214844 48.421875 C 44.749094 48.421875 44.283203 48.730656 44.283203 49.347656 C 44.283203 50.567656 46.146484 50.567656 46.146484 49.347656 C 46.146484 48.730656 45.680594 48.421875 45.214844 48.421875 z M 71.357422 51.703125 C 71.292609 51.703516 71.227063 51.716891 71.164062 51.744141 C 70.910062 51.853141 70.791391 52.147391 70.900391 52.400391 L 71.095703 52.855469 C 71.177703 53.045469 71.363641 53.158203 71.556641 53.158203 C 71.622641 53.158203 71.689906 53.145187 71.753906 53.117188 C 72.007906 53.008187 72.123625 52.715891 72.015625 52.462891 L 71.820312 52.005859 C 71.737813 51.815359 71.551859 51.701953 71.357422 51.703125 z" fill="inherit"/></g></svg>