<?xml version="1.0" encoding="UTF-8" standalone="no"?><svg xmlns="http://www.w3.org/2000/svg" xmlns:xlink="http://www.w3.org/1999/xlink" fill="#cfe0e3" height="333.5" preserveAspectRatio="xMidYMid meet" version="1" viewBox="0.0 -0.0 500.0 333.5" width="500" zoomAndPan="magnify"><defs><clipPath id="a"><path d="M 0 251 L 500 251 L 500 333.5 L 0 333.5 Z M 0 251"/></clipPath></defs><g><g clip-path="url(#a)" id="change1_1"><path d="M 322.136719 312.5 L 177.863281 312.5 C 176.871094 312.5 176.234375 311.453125 176.691406 310.574219 L 187.796875 289.195312 C 188.023438 288.757812 188.476562 288.484375 188.96875 288.484375 L 311.03125 288.484375 C 311.523438 288.484375 311.976562 288.757812 312.203125 289.195312 L 323.308594 310.574219 C 323.765625 311.453125 323.128906 312.5 322.136719 312.5 Z M 496.8125 314.925781 L 437.066406 255.183594 C 435.027344 253.140625 432.261719 251.996094 429.375 251.996094 L 70.625 251.996094 C 67.738281 251.996094 64.972656 253.140625 62.929688 255.183594 L 3.1875 314.925781 C 1.144531 316.96875 0 319.734375 0 322.621094 C 0 328.628906 4.871094 333.5 10.878906 333.5 L 489.121094 333.5 C 495.128906 333.5 500 328.628906 500 322.621094 C 500 319.734375 498.855469 316.96875 496.8125 314.925781" fill="inherit"/></g><g id="change1_2"><path d="M 416 -0.00390625 L 84 -0.00390625 C 74.394531 -0.00390625 66.535156 7.855469 66.535156 17.460938 L 66.535156 214.570312 C 66.535156 224.175781 74.394531 232.035156 84 232.035156 L 416 232.035156 C 425.605469 232.035156 433.464844 224.175781 433.464844 214.570312 L 433.464844 17.460938 C 433.464844 7.855469 425.605469 -0.00390625 416 -0.00390625 Z M 413.25 20.210938 L 413.25 211.820312 L 86.75 211.820312 L 86.75 20.210938 L 413.25 20.210938" fill="inherit"/></g></g></svg>