<?xml version="1.0" encoding="UTF-8" standalone="no"?><svg xmlns="http://www.w3.org/2000/svg" xmlns:xlink="http://www.w3.org/1999/xlink" fill="none" height="12" preserveAspectRatio="xMidYMid meet" style="fill: none" version="1" viewBox="0.0 0.0 12.0 12.0" width="12" zoomAndPan="magnify"><g id="change1_1"><path d="M9 2.5C9 2.77614 8.77614 3 8.5 3C8.22386 3 8 2.77614 8 2.5C8 2.22386 8.22386 2 8.5 2C8.77614 2 9 2.22386 9 2.5Z" fill="#12335a"/></g><g id="change1_2"><path clip-rule="evenodd" d="M9 6C9 7.65685 7.65685 9 6 9C4.34315 9 3 7.65685 3 6C3 4.34315 4.34315 3 6 3C7.65685 3 9 4.34315 9 6ZM8 6C8 7.10457 7.10457 8 6 8C4.89543 8 4 7.10457 4 6C4 4.89543 4.89543 4 6 4C7.10457 4 8 4.89543 8 6Z" fill="#12335a" fill-rule="evenodd"/></g><g id="change1_3"><path clip-rule="evenodd" d="M0 2.5C0 1.11929 1.11929 0 2.5 0H9.5C10.8807 0 12 1.11929 12 2.5V9.5C12 10.8807 10.8807 12 9.5 12H2.5C1.11929 12 0 10.8807 0 9.5V2.5ZM2.5 1C1.67157 1 1 1.67157 1 2.5V9.5C1 10.3284 1.67157 11 2.5 11H9.5C10.3284 11 11 10.3284 11 9.5V2.5C11 1.67157 10.3284 1 9.5 1H2.5Z" fill="#12335a" fill-rule="evenodd"/></g></svg>