<?xml version="1.0" encoding="UTF-8" standalone="no"?><svg xmlns="http://www.w3.org/2000/svg" xmlns:xlink="http://www.w3.org/1999/xlink" fill="#ffffff" height="401.7" preserveAspectRatio="xMidYMid meet" version="1" viewBox="21.1 47.2 471.6 401.7" width="471.6" zoomAndPan="magnify"><g id="change1_1"><path d="M334.4,50.2c-3.1-3-8-3-11.1,0l-48,46.3c-1.6,1.5-2.4,3.6-2.4,5.8s0.9,4.2,2.4,5.8l12.9,12.5c-2.3,1.1-4.5,2.5-6.4,4.4 l-43,41.5l-5.8-5.6c-2.3-2.3-5-4-7.9-5.2l13.3-12.8c1.6-1.5,2.4-3.6,2.4-5.8c0-2.2-0.9-4.2-2.4-5.8l-48-46.3c-3.1-3-8-3-11.1,0 L23.5,235.3c-1.6,1.5-2.4,3.6-2.4,5.8s0.9,4.2,2.4,5.8l48,46.3c1.5,1.5,3.6,2.2,5.6,2.2s4-0.7,5.6-2.2l13.8-13.3 c1.2,2.8,2.9,5.3,5.1,7.6l-22.1,21.4c-5.3,5.1-8.2,11.9-8.2,19.1c0,7.2,2.9,14,8.2,19.1l2.2,2.1c5.4,5.2,12.4,7.8,19.4,7.8 c0,0,0.1,0,0.1,0c0,7.2,2.9,14,8.2,19l2.2,2.1c5.4,5.2,12.4,7.8,19.4,7.8c0,0,0.1,0,0.1,0c0,7.2,2.9,13.9,8.2,19l2.2,2.1 c5.4,5.2,12.4,7.8,19.4,7.8c0,0,0.1,0,0.1,0c0,7.2,2.9,14,8.2,19l2.2,2.1c5.4,5.2,12.4,7.8,19.4,7.8c7,0,14.1-2.6,19.4-7.8 l22.5-21.7l27.4,26.5c5.5,5.3,12.8,8.2,20.5,8.2c7.7,0,15-2.9,20.5-8.2c5.6-5.4,8.7-12.6,8.7-20.2c0-0.2,0-0.3,0-0.5 c0.3,0,0.5,0,0.8,0c7.7,0,15-2.9,20.5-8.2c5.6-5.4,8.7-12.6,8.7-20.2c0-0.2,0-0.3,0-0.5c0.3,0,0.5,0,0.8,0c7.7,0,15-2.9,20.5-8.2 c5.6-5.4,8.7-12.6,8.7-20.2c0-0.2,0-0.3,0-0.5c0.3,0,0.5,0,0.8,0c7.7,0,15-2.9,20.5-8.2c5.6-5.4,8.7-12.6,8.7-20.2 s-3.1-14.8-8.7-20.2l-21-20.3l42.6-41c2-2,3.7-4.2,4.9-6.7l13.5,13c1.5,1.5,3.6,2.2,5.6,2.2s4-0.7,5.6-2.2l48-46.3 c1.6-1.5,2.4-3.6,2.4-5.8s-0.9-4.2-2.4-5.8L334.4,50.2z M77,276.2l-36.4-35.1L185,101.8l36.4,35.2L77,276.2z M109.3,337.6 c-4.6,4.4-12.1,4.4-16.6,0l-2.2-2.1c-2.1-2.1-3.3-4.8-3.3-7.6c0-2.9,1.2-5.6,3.3-7.6l28.1-27.1c0,0,0,0,0,0l16.1-15.5 c4.6-4.4,12.1-4.4,16.6,0l2.2,2.1c2.1,2.1,3.3,4.8,3.3,7.6s-1.2,5.6-3.3,7.6L109.3,337.6z M139.3,366.5c-4.6,4.4-12,4.4-16.7,0 l-2.2-2.1c-2.1-2.1-3.3-4.8-3.3-7.6s1.2-5.6,3.3-7.6l28.1-27.1c0,0,0,0,0,0l16.1-15.5c2.3-2.2,5.3-3.3,8.3-3.3c3,0,6,1.1,8.3,3.3 l2.2,2.1c2.1,2.1,3.3,4.8,3.3,7.6c0,2.9-1.2,5.6-3.3,7.6L139.3,366.5z M169.3,395.4c-4.6,4.4-12.1,4.4-16.6,0l-2.2-2.1 c-2.1-2.1-3.3-4.8-3.3-7.6c0-2.9,1.2-5.6,3.3-7.6l44.2-42.6c0,0,0,0,0,0c2.3-2.2,5.3-3.3,8.3-3.3c3,0,6,1.1,8.3,3.3l2.2,2.1 c1.6,1.6,2.7,3.5,3.1,5.7c0.7,3.5-0.5,7-3.1,9.5c0,0,0,0,0,0L169.3,395.4z M199.3,424.3c-4.6,4.4-12.1,4.4-16.6,0l-2.2-2.1 c-2.1-2.1-3.3-4.8-3.3-7.6s1.2-5.6,3.3-7.6l44.2-42.6c0,0,0,0,0,0c2.3-2.2,5.3-3.3,8.3-3.3c2.5,0,5,0.8,7.1,2.3 c0.4,0.3,0.8,0.6,1.2,1l2.2,2.2c2.1,2.1,3.3,4.8,3.3,7.6s-1.2,5.6-3.3,7.6L199.3,424.3z M380.3,324.9c2.4,2.3,3.8,5.4,3.8,8.7 c0,3.3-1.3,6.4-3.8,8.7c-2.5,2.4-5.9,3.7-9.4,3.7c-3.6,0-6.9-1.3-9.4-3.7c-0.2-0.2-0.4-0.4-0.6-0.5c-3.2-2.5-7.8-2.2-10.7,0.7 c-3.1,3.2-3,8.2,0.2,11.3c2.4,2.3,3.8,5.4,3.8,8.7c0,3.3-1.3,6.4-3.8,8.7c-2.5,2.4-5.9,3.8-9.4,3.8s-6.9-1.3-9.4-3.8 c-3.2-3.1-8.2-3-11.3,0.2c-0.5,0.6-1,1.2-1.3,1.8c0,0-0.1,0.1-0.1,0.1c-0.1,0.1-0.1,0.3-0.2,0.4c0,0.1-0.1,0.2-0.1,0.3 c0,0.1-0.1,0.2-0.1,0.3c-0.1,0.2-0.1,0.3-0.2,0.5c0,0.1,0,0.1,0,0.2c0,0.2-0.1,0.4-0.1,0.6c0,0,0,0,0,0c-0.2,1-0.1,2,0.1,3 c0,0,0,0,0,0.1c0.1,0.2,0.1,0.5,0.2,0.7c0,0,0,0.1,0,0.1c0.1,0.2,0.1,0.4,0.2,0.6c0,0.1,0.1,0.1,0.1,0.2c0.1,0.2,0.2,0.3,0.3,0.5 c0.1,0.1,0.1,0.2,0.2,0.3c0.1,0.1,0.2,0.3,0.2,0.4c0.1,0.1,0.2,0.2,0.3,0.4c0.1,0.1,0.1,0.2,0.2,0.3c0.1,0.1,0.2,0.3,0.4,0.4 c0.1,0.1,0.1,0.1,0.2,0.2c2.4,2.3,3.8,5.4,3.8,8.7c0,3.3-1.3,6.4-3.8,8.7c-2.5,2.4-5.9,3.8-9.4,3.8s-6.9-1.3-9.4-3.8 c-0.1-0.1-0.2-0.2-0.3-0.3c-0.1-0.1-0.2-0.2-0.3-0.3c-0.1,0-0.1-0.1-0.2-0.1c-0.2-0.1-0.3-0.2-0.5-0.3c0,0-0.1,0-0.1-0.1 c-0.2-0.1-0.4-0.2-0.6-0.3c-0.1,0-0.2-0.1-0.3-0.1c-0.1-0.1-0.3-0.1-0.4-0.2c-0.2-0.1-0.3-0.1-0.5-0.2c-0.1,0-0.2-0.1-0.2-0.1 c-0.2-0.1-0.5-0.1-0.7-0.2c0,0,0,0,0,0c-2.3-0.4-4.7,0.2-6.5,1.7c0,0,0,0,0,0c-0.2,0.1-0.3,0.3-0.4,0.4c-0.1,0-0.1,0.1-0.2,0.1 c0,0,0,0,0,0c0,0,0,0,0,0c-0.1,0.1-0.2,0.2-0.3,0.4c-0.1,0.1-0.2,0.2-0.2,0.3c-0.1,0.1-0.1,0.2-0.2,0.3c-0.1,0.1-0.2,0.2-0.3,0.4 c0,0.1-0.1,0.1-0.1,0.2c-0.1,0.2-0.2,0.3-0.3,0.5c0,0.1-0.1,0.1-0.1,0.2c-0.1,0.2-0.2,0.3-0.2,0.5c0,0.1-0.1,0.2-0.1,0.2 c-0.1,0.2-0.1,0.3-0.2,0.5c0,0.1,0,0.2-0.1,0.3c0,0.1-0.1,0.3-0.1,0.4c0,0.1,0,0.3,0,0.4c0,0.1,0,0.3,0,0.4c0,0.2,0,0.3,0,0.5 c0,0.1,0,0.2,0,0.3c0,0.2,0,0.4,0,0.6c0,0.1,0,0.1,0,0.2c0,0.2,0.1,0.5,0.1,0.7c0,0,0,0,0,0.1c0.1,0.2,0.1,0.5,0.2,0.7c0,0,0,0,0,0 c0.3,1,0.8,1.9,1.5,2.7c0,0,0,0,0,0c0.1,0.2,0.3,0.3,0.4,0.4c0,0.1,0.1,0.1,0.1,0.2c2.4,2.3,3.8,5.4,3.8,8.7c0,3.3-1.3,6.4-3.8,8.7 c-2.5,2.4-5.9,3.8-9.4,3.8s-6.9-1.3-9.4-3.7l-27-26.1l10.1-9.8h0c5.3-5.1,8.2-11.9,8.2-19.1s-2.9-14-8.2-19.1l-4.1-4 c-0.1-0.1-0.2-0.1-0.2-0.2c-0.1-0.1-0.2-0.2-0.3-0.3c-0.1-0.1-0.2-0.1-0.3-0.2c-0.1-0.1-0.2-0.2-0.4-0.3c-0.1-0.1-0.2-0.1-0.3-0.2 c-0.1-0.1-0.2-0.1-0.4-0.2c-0.1-0.1-0.2-0.1-0.3-0.2c-0.1-0.1-0.3-0.1-0.4-0.2c0,0,0,0-0.1,0c-4.6-2.9-9.8-4.2-15-4.2 c0-1.6-0.2-3.2-0.5-4.8c-1-5.4-3.7-10.4-7.7-14.3l-2.2-2.2c-5.4-5.2-12.5-7.8-19.6-7.7c0-7.2-2.9-13.9-8.2-19l-2.2-2.1 c-5.4-5.2-12.5-7.8-19.6-7.7c0-7.2-2.9-14-8.2-19l-2.2-2.1c-10.7-10.3-28.1-10.3-38.9,0L113,276.2c-1.7-1.7-2.6-3.9-2.6-6.2 c0-2.4,1-4.7,2.8-6.4l94.8-91.4c3.9-3.7,10.2-3.7,14,0l5.4,5.2l-23.9,23l-3.1,3c0,0,0,0,0,0l0,0c0,0,0,0,0,0 c-5.6,5.4-8.7,12.6-8.7,20.2c0,7.7,3.1,14.8,8.7,20.2c5.7,5.5,13.1,8.2,20.5,8.2c7.4,0,14.9-2.7,20.5-8.2l27.4-26.5l60.4,58.3 c0,0,0,0,0,0L380.3,324.9z M401.8,240.6l-43,41.4l-18.4-17.8c0,0,0,0,0,0l-66-63.6c-0.1-0.1-0.1-0.1-0.2-0.2 c-0.1-0.1-0.2-0.2-0.3-0.3c-0.1-0.1-0.2-0.2-0.3-0.2c-0.1-0.1-0.2-0.2-0.3-0.2c-0.1-0.1-0.2-0.1-0.3-0.2c-0.1-0.1-0.2-0.1-0.3-0.2 c-0.1-0.1-0.2-0.1-0.4-0.2c-0.1-0.1-0.2-0.1-0.4-0.2c-0.1,0-0.2-0.1-0.4-0.1c-0.1,0-0.2-0.1-0.4-0.1c-0.1,0-0.3-0.1-0.4-0.1 c-0.1,0-0.2-0.1-0.4-0.1c-0.1,0-0.3,0-0.4-0.1c-0.1,0-0.3,0-0.4,0c-0.1,0-0.3,0-0.4,0c-0.1,0-0.3,0-0.4,0c-0.1,0-0.2,0-0.4,0 c-0.1,0-0.3,0-0.4,0c-0.1,0-0.2,0-0.4,0c-0.1,0-0.3,0-0.4,0.1c-0.1,0-0.2,0.1-0.4,0.1c-0.1,0-0.3,0.1-0.4,0.1 c-0.1,0-0.2,0.1-0.4,0.1c-0.1,0-0.2,0.1-0.4,0.1c-0.1,0-0.2,0.1-0.4,0.2c-0.1,0.1-0.2,0.1-0.3,0.2c-0.1,0.1-0.2,0.1-0.4,0.2 c-0.1,0.1-0.2,0.1-0.3,0.2c-0.1,0.1-0.2,0.2-0.4,0.3c-0.1,0.1-0.2,0.1-0.3,0.2c-0.1,0.1-0.2,0.2-0.3,0.3c-0.1,0.1-0.1,0.1-0.2,0.2 l-33,31.8c-5.2,5-13.7,5-18.9,0c-2.4-2.3-3.8-5.4-3.8-8.7c0-3.3,1.3-6.4,3.8-8.7l32.7-31.6c0.1-0.1,0.2-0.1,0.2-0.2l48.5-46.8 c3.2-3.1,8.4-3.1,11.7-0.1c0.1,0.1,0.1,0.1,0.2,0.2l97,93.6c1.4,1.4,2.2,3.3,2.2,5.2C404.1,237.3,403.3,239.1,401.8,240.6z M436.8,241.5l-23.7-22.8c0,0,0,0,0,0c0,0,0,0-0.1-0.1c0,0,0,0,0,0c0,0,0,0,0,0c0,0,0,0,0,0l-0.1-0.1c0,0,0.1,0.1,0.1,0.1 c0,0-0.1-0.1-0.1-0.1l-97-93.6c0,0-0.1-0.1-0.1-0.1l-23.3-22.5l36.4-35.2l144.4,139.3L436.8,241.5z"/></g></svg>