<?xml version="1.0" encoding="UTF-8" standalone="no"?><svg xmlns="http://www.w3.org/2000/svg" xmlns:xlink="http://www.w3.org/1999/xlink" fill="#ffffff" height="477.5" preserveAspectRatio="xMidYMid meet" version="1" viewBox="32.4 18.5 447.6 477.5" width="447.6" zoomAndPan="magnify"><g id="change1_1"><path d="M340.9,143.3c-22.5-22.8-52.6-35.6-84.6-36c-0.5,0-1,0-1.5,0c-65.5,0-119.7,52.8-121.1,118.4c-0.7,29.6,9.5,58.3,28.5,80.8 c25.3,30,38,45.1,38,81.6v33.3v33.3c0,4.4,3.6,8,8,8h6.1c3.7,18.9,20.5,33.3,40.5,33.3c20,0,36.8-14.3,40.5-33.3h6.1 c4.4,0,8-3.6,8-8v-33.3v-33.3c0-36.4,12.6-51.4,37.7-81.2l0.5-0.6c18.3-21.8,28.4-49.4,28.4-77.9 C375.9,196.3,363.5,166.1,340.9,143.3z M254.8,480c-11.1,0-20.6-7.2-24-17.3h48C275.4,472.8,265.9,480,254.8,480z M293.4,446.7 h-5.3h-66.6h-5.3v-17.3h77.2V446.7z M293.4,413.4h-77.2v-17.3h77.2V413.4z M270,380.2h-30.6v-78.5c0-1.8-0.6-3.6-1.8-5l-24.9-31.1 v-28.8l17.5,11.7c3.2,2.1,7.4,1.7,10.1-1l15.1-15.1l21.1,15.8c2.8,2.1,6.8,2.1,9.6,0l13.8-10.4V265l-29.3,29.3 c-1.5,1.5-2.4,3.6-2.3,5.8L270,380.2z M335.3,296.1l-0.5,0.6c-24.2,28.7-39.4,46.8-41.3,83.5H286l-1.6-76.9l29.2-29.2 c1.5-1.5,2.3-3.5,2.3-5.7v-46.6c0-3-1.7-5.8-4.4-7.2c-2.7-1.4-6-1.1-8.4,0.8l-21.8,16.4l-21.8-16.4c-3.2-2.4-7.6-2.1-10.5,0.7 l-15.3,15.3l-24.5-16.3c-2.5-1.6-5.6-1.8-8.2-0.4c-2.6,1.4-4.2,4.1-4.2,7.1v46.6c0,1.8,0.6,3.6,1.8,5l24.9,31.1v75.7H216 c-1.9-36.9-17.2-55.1-41.6-84c-16.5-19.6-25.3-44.5-24.7-70.2c1.3-57.4,49-103.4,106.4-102.7c27.8,0.3,53.9,11.4,73.5,31.2 c19.6,19.8,30.4,46.1,30.4,73.9C359.9,253.1,351.2,277.2,335.3,296.1z"/><path d="M472,234.3h-59.3c-4.4,0-8,3.6-8,8s3.6,8,8,8H472c4.4,0,8-3.6,8-8S476.4,234.3,472,234.3z"/><path d="M107.7,242.3c0-4.4-3.6-8-8-8H40.4c-4.4,0-8,3.6-8,8s3.6,8,8,8h59.3C104.1,250.3,107.7,246.8,107.7,242.3z"/><path d="M372.5,347.4c-3.1-3.1-8.2-3.1-11.3,0c-3.1,3.1-3.1,8.2,0,11.3l41.9,41.9c1.6,1.6,3.6,2.3,5.7,2.3s4.1-0.8,5.7-2.3 c3.1-3.1,3.1-8.2,0-11.3L372.5,347.4z"/><path d="M97.9,84.1c-3.1,3.1-3.1,8.2,0,11.3l41.9,41.9c1.6,1.6,3.6,2.3,5.7,2.3c2,0,4.1-0.8,5.7-2.3c3.1-3.1,3.1-8.2,0-11.3 l-41.9-41.9C106.1,81,101.1,81,97.9,84.1z"/><path d="M248.2,26.5v59.3c0,4.4,3.6,8,8,8s8-3.6,8-8V26.5c0-4.4-3.6-8-8-8S248.2,22.1,248.2,26.5z"/><path d="M403.1,84.1L361.2,126c-3.1,3.1-3.1,8.2,0,11.3c1.6,1.6,3.6,2.3,5.7,2.3s4.1-0.8,5.7-2.3l41.9-41.9c3.1-3.1,3.1-8.2,0-11.3 C411.3,81,406.3,81,403.1,84.1z"/><path d="M139.9,347.4l-41.9,41.9c-3.1,3.1-3.1,8.2,0,11.3c1.6,1.6,3.6,2.3,5.7,2.3s4.1-0.8,5.7-2.3l41.9-41.9 c3.1-3.1,3.1-8.2,0-11.3C148.1,344.2,143,344.2,139.9,347.4z"/></g></svg>