<?xml version="1.0" encoding="UTF-8" standalone="no"?><svg xmlns="http://www.w3.org/2000/svg" xmlns:xlink="http://www.w3.org/1999/xlink" clip-rule="evenodd" fill="#cfe0e3" fill-rule="evenodd" height="480.5" preserveAspectRatio="xMidYMid meet" stroke-linejoin="round" stroke-miterlimit="2" version="1" viewBox="42.1 15.0 425.8 480.5" width="425.8" zoomAndPan="magnify"><g id="change1_1"><path d="M262.322,391.543C263.26,392.48 263.787,393.752 263.787,395.078C263.787,396.404 263.26,397.676 262.322,398.614L182.305,478.631C173.781,487.155 159.865,487.155 151.341,478.631C142.817,470.134 142.817,456.19 151.341,447.694L231.358,367.65C232.295,366.712 233.567,366.185 234.894,366.185C236.22,366.185 237.492,366.712 238.43,367.65L262.322,391.543ZM194.243,384.975C177.264,376.26 155.228,377.567 139.282,393.512C133.825,398.969 124.973,398.969 119.516,393.512L89.389,363.41C83.932,357.953 83.932,349.076 89.389,343.619C119.039,313.97 98.015,263.171 56.068,263.171C48.348,263.171 42.086,256.91 42.086,249.189L42.086,206.614C42.086,198.894 48.348,192.632 56.068,192.632C98.015,192.632 119.039,141.833 89.389,112.184C83.932,106.727 83.932,97.875 89.389,92.418L119.516,62.291C124.973,56.834 133.825,56.834 139.282,62.291C168.932,91.94 219.73,70.917 219.73,28.97C219.73,21.25 225.992,14.988 233.712,14.988L276.288,14.988C284.008,14.988 290.27,21.25 290.27,28.97C290.27,70.917 341.068,91.94 370.718,62.291C376.175,56.834 385.052,56.834 390.509,62.291L420.611,92.418C426.068,97.875 426.068,106.727 420.611,112.184C390.961,141.833 412.01,192.632 453.932,192.632C461.677,192.632 467.914,198.894 467.914,206.614L467.914,249.189C467.914,256.91 461.677,263.171 453.932,263.171C412.01,263.171 390.961,313.97 420.611,343.619C426.068,349.076 426.068,357.953 420.611,363.41L390.509,393.512C385.052,398.969 376.175,398.969 370.718,393.512C353.43,376.225 328.953,376.173 311.547,387.444C307.277,383.174 300.473,376.369 292.683,368.58L332.83,328.433L342.628,327.433C348.221,326.862 353.274,323.843 356.428,319.189L374.316,292.786C379.426,285.244 378.464,275.136 372.022,268.694L361.305,257.977C359.211,255.883 356.73,254.368 354.075,253.452C356.187,245.285 357.311,236.726 357.311,227.914C357.311,171.575 311.363,125.627 255.024,125.627C198.685,125.627 152.714,171.575 152.714,227.914C152.714,253.235 162,276.457 177.339,294.352L177.124,297.112L166.563,297.937C162.872,294.25 157.615,289.003 153.405,284.816C148.103,279.513 140.124,277.844 133.105,280.589C126.104,283.328 121.382,289.941 121.061,297.449C120.332,313.506 126.089,329.793 138.337,342.041C153.356,357.06 174.461,362.309 193.727,357.805C193.727,357.805 199.342,363.421 207.567,371.646L194.243,384.975ZM217.465,361.745L197.611,341.891C181.216,348.727 161.58,345.486 148.236,332.141C138.876,322.782 134.485,310.331 135.048,298.061C135.126,296.087 136.366,294.347 138.205,293.627C140.045,292.908 142.136,293.345 143.533,294.742C150.811,301.982 161.226,312.397 161.226,312.397L190.149,310.137L192.229,283.511C192.343,282.053 191.814,280.619 190.78,279.586L174.735,263.54C173.329,262.136 172.889,260.033 173.613,258.182C174.336,256.332 176.087,255.086 178.072,255.007C190.343,254.473 202.794,258.864 212.153,268.224C225.498,281.568 228.739,301.204 221.903,317.599L251.506,347.201L244.128,354.58C241.328,353.023 238.153,352.185 234.892,352.185C229.853,352.186 225.02,354.188 221.457,357.752L217.465,361.745ZM254.543,363.964L313.73,304.776C314.543,303.963 315.051,302.894 315.168,301.749L316.493,288.792C316.644,287.321 317.438,285.991 318.663,285.161L345.065,267.273C347.05,265.928 349.71,266.181 351.405,267.877L362.122,278.593C363.818,280.289 364.071,282.949 362.726,284.933L344.838,311.336C344.008,312.561 342.678,313.355 341.206,313.505L328.223,314.831C327.078,314.948 326.009,315.456 325.195,316.269L266.022,375.443L254.543,363.964ZM275.402,385.861L282.784,378.479L312.373,408.069C328.795,401.233 348.403,404.474 361.775,417.845C371.136,427.207 375.528,439.66 374.95,451.919C374.869,453.892 373.629,455.63 371.79,456.348C369.951,457.066 367.862,456.628 366.466,455.232C359.186,447.992 348.757,437.563 348.757,437.563L319.862,439.85L317.575,468.745L335.263,486.434C336.668,487.838 337.109,489.939 336.386,491.789C335.664,493.638 333.916,494.885 331.932,494.966C319.672,495.516 307.219,491.124 297.858,481.763C284.486,468.391 281.245,448.783 288.081,432.361L268.227,412.508L272.222,408.513C275.785,404.95 277.787,400.117 277.787,395.078C277.787,391.824 276.952,388.657 275.402,385.861ZM258.328,422.407L272.167,436.247C271.813,437.76 271.52,439.284 271.286,440.815L239.92,440.815L258.328,422.407ZM254.988,211.028C254.858,211.62 255.003,212.239 255.383,212.711C255.762,213.184 256.336,213.458 256.942,213.458L299.79,213.458C300.527,213.458 301.205,213.864 301.553,214.514C301.901,215.164 301.863,215.953 301.454,216.567L247.302,297.876C246.769,298.677 245.741,298.984 244.855,298.608C243.969,298.231 243.478,297.277 243.685,296.337L255.037,244.8C255.167,244.209 255.022,243.59 254.643,243.117C254.263,242.645 253.69,242.37 253.084,242.37L210.257,242.37C209.52,242.37 208.843,241.964 208.494,241.314C208.146,240.664 208.184,239.875 208.593,239.262L262.721,157.958C263.255,157.156 264.283,156.849 265.169,157.225C266.055,157.602 266.547,158.556 266.339,159.496L254.988,211.028Z"/></g></svg>