<?xml version="1.0" encoding="UTF-8" standalone="no"?><svg xmlns="http://www.w3.org/2000/svg" xmlns:xlink="http://www.w3.org/1999/xlink" clip-rule="evenodd" fill="#000000" fill-rule="evenodd" height="120.9" preserveAspectRatio="xMidYMid meet" stroke-linejoin="round" stroke-miterlimit="2" version="1" viewBox="6.2 6.2 115.0 120.9" width="115" zoomAndPan="magnify"><g id="change1_1"><path d="M77.991,6.278l-0.004,0.001l-69.996,11.666c-1.005,0.167 -1.741,1.037 -1.741,2.055l0,93.333c0,1.019 0.736,1.888 1.741,2.055l70,11.667c0.213,0.036 0.428,0.037 0.638,0.007l40.832,-5.833c1.027,-0.147 1.789,-1.026 1.789,-2.062l-0,-105c-0,-1.037 -0.762,-1.916 -1.789,-2.063l-40.833,-5.833c-0.214,-0.031 -0.428,-0.027 -0.637,0.007Zm-67.574,80.348l65.833,10.972l0,24.943c-0,-0 -65.833,-10.973 -65.833,-10.973l-0,-24.942Zm96.25,-72.141l-0,58.015c-0,0.595 -0.255,1.162 -0.7,1.557l-13.884,12.342l0,34.532c10.737,-1.534 25,-3.571 25,-3.571l0,-101.386l-10.416,-1.489Zm-91.422,68.722l61.005,10.167l-0,-11.917l-47.134,-4.8l-13.871,6.55Zm87.255,-69.317l-22.083,-3.155l-0,80.459l22.083,-19.63l0,-57.674Zm-92.083,16.208l-0,50.781l16.25,-7.674l-0,-45.815l-16.25,2.708Zm74.583,-10.098l0,5.833c-0,1.15 0.934,2.084 2.083,2.084c1.15,-0 2.084,-0.934 2.084,-2.084l-0,-5.833c-0,-1.15 -0.934,-2.083 -2.084,-2.083c-1.149,-0 -2.083,0.933 -2.083,2.083Zm-8.75,-5.098l-65.833,10.972l-0,-4.109l65.833,-10.972l-0,4.109Z" fill="#cfe0e3"/></g></svg>