<?xml version="1.0" encoding="UTF-8" standalone="no"?><svg xmlns="http://www.w3.org/2000/svg" xmlns:xlink="http://www.w3.org/1999/xlink" fill="#000000" height="302.8" preserveAspectRatio="xMidYMid meet" version="1" viewBox="25.1 104.6 461.8 302.8" width="461.8" zoomAndPan="magnify"><g fill="#cfe0e3" id="change1_1"><path d="M 124.113281 262.898438 L 124.113281 340.214844 C 124.128906 363.050781 178.597656 388.496094 256.742188 388.496094 C 334.886719 388.496094 389.355469 363.050781 389.371094 340.210938 L 389.371094 250.671875 L 242.457031 316.050781 L 124.113281 262.898438" fill="inherit"/><path d="M 289.960938 210.230469 C 286.710938 210.230469 284.082031 207.601562 284.082031 204.351562 C 284.082031 201.105469 286.710938 198.476562 289.960938 198.476562 L 439.179688 198.476562 C 438.472656 199.585938 438.050781 200.894531 438.050781 202.3125 L 438.050781 210.230469 Z M 486.839844 383.820312 C 480.507812 331.039062 459.898438 306.316406 452.382812 298.894531 L 452.382812 202.3125 C 452.382812 200.894531 451.957031 199.585938 451.25 198.476562 L 451.253906 198.476562 L 451.25 198.472656 C 449.976562 196.476562 447.757812 195.144531 445.214844 195.144531 C 444.832031 195.144531 444.460938 195.199219 444.09375 195.257812 L 242.257812 104.605469 L 25.109375 201.25 L 242.488281 298.878906 L 438.050781 211.847656 L 438.050781 298.894531 C 430.53125 306.316406 409.921875 331.039062 403.589844 383.820312 C 403.566406 384.023438 403.550781 384.230469 403.542969 384.433594 C 403.507812 385.515625 403.597656 391.195312 408.964844 396.742188 C 415.796875 403.8125 427.996094 407.394531 445.214844 407.394531 C 462.433594 407.394531 474.628906 403.8125 481.464844 396.746094 C 486.832031 391.195312 486.921875 385.515625 486.886719 384.433594 C 486.878906 384.230469 486.863281 384.023438 486.839844 383.820312" fill="inherit"/></g></svg>