<?xml version="1.0" encoding="UTF-8" standalone="no"?><svg xmlns="http://www.w3.org/2000/svg" xmlns:xlink="http://www.w3.org/1999/xlink" fill="#ffffff" height="453" preserveAspectRatio="xMidYMid meet" version="1" viewBox="16.0 36.3 477.1 453.0" width="477.1" zoomAndPan="magnify"><g><g id="change1_2"><path d="M158.3,176c0,77,62.7,139.7,139.7,139.7S437.8,253,437.8,176S375.1,36.3,298.1,36.3S158.3,99,158.3,176z M421.8,176 c0,68.2-55.5,123.7-123.7,123.7S174.3,244.2,174.3,176S229.8,52.3,298.1,52.3S421.8,107.8,421.8,176z"/></g><g id="change1_1"><path d="M334.2,154.8c4.4,0,8-3.6,8-8v-9.4c0-17.7-15.2-32.5-35.3-35.6V85.9c0-4.4-3.6-8-8-8s-8,3.6-8,8v15.9 c-20.1,3.2-35.3,17.9-35.3,35.6v8.4c0,11.5,6.5,22.4,17.5,29.1l43.2,26.7c6.3,3.9,9.9,9.6,9.9,15.5v5.3 c0,11.2-12.2,20.2-27.3,20.2h-0.6h-0.1h-1c-15,0-27.3-9.1-27.3-20.2v-5.2c0-4.4-3.6-8-8-8s-8,3.6-8,8v5.2 c0,18,15.7,32.9,36.2,35.8L290,275c0,4.4,3.5,8,7.9,8.1c0,0,0,0,0.1,0c4.4,0,8-3.5,8-7.9l0.1-16.9c20.4-2.9,36-17.8,36-35.7v-5.3 c0-11.5-6.5-22.4-17.5-29.1l-43.2-26.7c-6.3-3.9-9.9-9.6-9.9-15.5v-8.4c0-11.2,12.2-20.2,27.3-20.2s27.3,9.1,27.3,20.2v9.4 C326.2,151.2,329.7,154.8,334.2,154.8z"/></g><g id="change1_3"><path d="M90.4,304H24c-4.4,0-8,3.6-8,8v148c0,4.4,3.6,8,8,8h66.4c4.4,0,8-3.6,8-8v-12.7h32l94.9,30.1c21.5,8,39.6,11.9,57.6,11.9 c18.1,0,36.2-4,57.8-12c0.8-0.3,1.6-0.7,2.3-1.3l139-113.4c0.4-0.4,0.8-0.8,1.2-1.2c9.9-12.3,9.4-31.1-1.2-42.8 c-10.5-11.7-27.4-12.9-39.2-2.7L373.4,372c0-0.7,0-1.4,0-2.1c-0.3-16.7-13.4-30.4-29.3-30.4h-77.1c-4.4,0-8.6-2.6-11.2-6.9 c-0.6-0.9-1.3-1.7-2.2-2.4c-32.7-23.7-74-28.2-110.3-12l-13.4,6H98.4V312C98.4,307.6,94.9,304,90.4,304z M56,440c-4.4,0-8-3.6-8-8 s3.6-8,8-8s8,3.6,8,8S60.4,440,56,440z M82.4,332.3v107V452H69.3c6.4-4.3,10.7-11.6,10.7-20c0-13.2-10.8-24-24-24s-24,10.8-24,24 c0,8.3,4.3,15.7,10.7,20H32v-20V320h50.4V332.3z M131.7,340.3c1.1,0,2.2-0.2,3.2-0.7l15-6.7c30.6-13.6,65.3-10,93.2,9.5 c5.6,8.3,14.4,13.1,24,13.1h77.1c7.2,0,13.2,6.6,13.3,14.6c0.1,4.5-1.5,8.7-4.4,11.6c-1.4,1.4-3.1,2.5-4.8,3.1 c-2.3,0.4-4.6,0.6-6.9,0.6h-85.8c-4.4,0-8,3.6-8,8s3.6,8,8,8h89.4c2.4,0,4.8-0.3,7.1-0.9c10-1.8,19.4-6.2,27.7-12.8l73.4-59.4 c0.1-0.1,0.1-0.1,0.2-0.2c5.2-4.5,12.3-3.9,17,1.2c5.2,5.7,5.6,15.2,1,21.5l-137.2,112c-38.8,14.2-64.1,14-103.2-0.5 c-0.1,0-0.2-0.1-0.4-0.1l-96.2-30.6c-0.8-0.2-1.6-0.4-2.4-0.4H98.4v-91H131.7z"/></g></g></svg>